<?xml version="1.0" standalone="no"?>
<!DOCTYPE svg PUBLIC "-//W3C//DTD SVG 20010904//EN"
 "http://www.w3.org/TR/2001/REC-SVG-20010904/DTD/svg10.dtd">
<svg version="1.0" xmlns="http://www.w3.org/2000/svg"
 width="1814.000000pt" height="1814.000000pt" viewBox="0 0 1814.000000 1814.000000"
 preserveAspectRatio="xMidYMid meet">
<metadata>
Created by potrace 1.14, written by Peter Selinger 2001-2017
</metadata>
<g transform="translate(0.000000,1814.000000) scale(0.100000,-0.100000)"
fill="#000000" stroke="none">
<path d="M15 13957 c-2 -6 -6 -75 -9 -151 l-5 -140 66 -125 c36 -69 83 -157
103 -196 40 -76 114 -216 205 -390 31 -60 70 -132 85 -160 15 -27 54 -102 87
-165 89 -170 170 -324 221 -420 72 -136 140 -267 205 -390 32 -63 75 -144 94
-179 19 -35 59 -109 88 -165 128 -246 170 -326 210 -401 23 -44 66 -125 95
-180 29 -55 74 -142 101 -192 27 -51 72 -137 100 -190 29 -54 69 -129 89 -168
21 -38 72 -137 115 -218 42 -82 94 -181 116 -220 21 -40 55 -106 76 -147 21
-41 40 -77 43 -80 3 -3 23 -41 45 -85 22 -43 58 -113 81 -155 22 -41 70 -131
106 -200 36 -69 89 -170 118 -225 29 -55 77 -147 108 -205 111 -212 221 -421
277 -525 18 -33 63 -118 100 -190 37 -71 87 -166 110 -210 23 -44 71 -134 105
-200 35 -66 77 -147 95 -180 18 -33 58 -109 90 -170 32 -60 79 -150 105 -200
26 -49 69 -130 95 -180 109 -208 160 -304 200 -380 23 -44 71 -134 105 -200
35 -66 79 -151 100 -190 74 -139 139 -262 195 -370 32 -60 80 -153 108 -205
27 -52 74 -142 105 -200 30 -58 71 -136 92 -175 21 -38 61 -115 90 -170 74
-140 171 -273 281 -384 148 -150 279 -245 432 -313 140 -62 279 -118 304 -123
13 -2 31 -6 41 -9 9 -2 40 -7 67 -11 28 -3 57 -8 65 -10 8 -2 42 -6 75 -9 33
-4 71 -8 85 -10 14 -3 54 -8 90 -13 81 -10 3650 -11 3650 0 0 4 9 7 20 7 11 0
20 -6 20 -12 0 -9 3 -9 8 -3 6 10 18 11 40 6 16 -5 581 -3 589 2 4 2 22 3 38
1 32 -4 1758 -4 3842 -1 858 2 1246 6 1253 13 6 6 28 73 50 150 50 181 171
615 175 634 2 8 29 105 60 215 31 110 58 207 60 215 2 8 63 229 135 490 73
261 134 483 136 493 1 10 8 32 14 50 5 18 33 115 61 217 28 102 62 226 76 275
14 50 29 104 33 120 4 17 52 188 105 380 101 362 129 463 169 612 13 49 54
196 91 328 37 132 71 254 75 270 4 17 14 55 23 85 9 30 64 228 122 440 58 212
115 416 127 453 11 37 21 73 22 80 3 16 15 59 83 301 30 110 56 207 58 215 3
14 46 169 236 851 11 41 24 86 29 100 4 14 23 79 40 145 28 106 186 678 241
870 10 39 35 129 55 200 19 72 46 171 60 220 14 50 32 113 39 140 7 28 30 109
50 180 20 72 43 155 51 185 8 30 22 78 30 106 8 28 17 60 19 70 2 11 11 44 20
74 9 30 22 78 30 105 7 28 20 73 28 100 8 28 26 95 41 150 15 55 36 131 47
170 10 38 19 73 19 77 0 5 -1706 8 -3792 8 l-3791 0 19 -22 19 -23 -26 23 -25
22 -5263 0 c-4148 0 -5263 -3 -5266 -13z m10455 -12 c0 -2 -10 -9 -22 -15 -22
-11 -22 -10 -4 4 21 17 26 19 26 11z m127 -57 c-3 -8 -6 -5 -6 6 -1 11 2 17 5
13 3 -3 4 -12 1 -19z m-242 -8 c-3 -5 -12 -10 -18 -10 -7 0 -6 4 3 10 19 12
23 12 15 0z m2612 -56 c-3 -3 -12 -4 -19 -1 -8 3 -5 6 6 6 11 1 17 -2 13 -5z
m336 -1 c-7 -2 -19 -2 -25 0 -7 3 -2 5 12 5 14 0 19 -2 13 -5z m-476 -9 c-3
-3 -12 -4 -19 -1 -8 3 -5 6 6 6 11 1 17 -2 13 -5z m626 -11 c-7 -2 -19 -2 -25
0 -7 3 -2 5 12 5 14 0 19 -2 13 -5z m-780 -10 c-7 -2 -19 -2 -25 0 -7 3 -2 5
12 5 14 0 19 -2 13 -5z m834 1 c-3 -3 -12 -4 -19 -1 -8 3 -5 6 6 6 11 1 17 -2
13 -5z m-3407 -49 c0 -2 -13 -11 -30 -20 -38 -19 -40 -11 -2 9 31 17 32 18 32
11z m6113 -12 c-7 -2 -21 -2 -30 0 -10 3 -4 5 12 5 17 0 24 -2 18 -5z m94 1
c-3 -3 -12 -4 -19 -1 -8 3 -5 6 6 6 11 1 17 -2 13 -5z m40 0 c-3 -3 -12 -4
-19 -1 -8 3 -5 6 6 6 11 1 17 -2 13 -5z m-224 -11 c-7 -2 -19 -2 -25 0 -7 3
-2 5 12 5 14 0 19 -2 13 -5z m294 1 c-3 -3 -12 -4 -19 -1 -8 3 -5 6 6 6 11 1
17 -2 13 -5z m-7004 -9511 c-7 -2 -21 -2 -30 0 -10 3 -4 5 12 5 17 0 24 -2 18
-5z m54 -9 c-3 -3 -12 -4 -19 -1 -8 3 -5 6 6 6 11 1 17 -2 13 -5z m1050 0 c-3
-3 -12 -4 -19 -1 -8 3 -5 6 6 6 11 1 17 -2 13 -5z m-970 -10 c-3 -3 -12 -4
-19 -1 -8 3 -5 6 6 6 11 1 17 -2 13 -5z m890 0 c-3 -3 -12 -4 -19 -1 -8 3 -5
6 6 6 11 1 17 -2 13 -5z"/>
</g>
</svg>
